<svg id="Laag_1_kopie" data-name="Laag 1 kopie" xmlns="http://www.w3.org/2000/svg" viewBox="0 0 467.64 467.64"><defs><style>.cls-1{fill:#303338;}.cls-2{fill:#3e4147;}.cls-3{fill:#f9ad15;}</style></defs><title>start</title><rect class="cls-1" width="467.64" height="467.64"/><rect class="cls-2" x="23" y="22.33" width="421" height="413.9"/><path class="cls-3" d="M352.35,190.81H213.44a72.18,72.18,0,0,0-70,55.14,24.27,24.27,0,1,0,0,33.95A72.07,72.07,0,0,0,284.55,275h67.8a13.45,13.45,0,0,0,13.44-13.45V204.26A13.45,13.45,0,0,0,352.35,190.81Zm-226.23,81.6a9.48,9.48,0,1,1,9.47-9.48A9.48,9.48,0,0,1,126.12,272.41Z"/><path class="cls-3" d="M161.27,184.11a7.4,7.4,0,1,0,13-7l-19.17-35.73a7.4,7.4,0,1,0-13,7Z"/><path class="cls-3" d="M113.66,192.56l38.83,11.71a7.4,7.4,0,1,0,4.27-14.17l-38.82-11.69a7.39,7.39,0,1,0-4.28,14.15Z"/><path class="cls-3" d="M186.73,185.91a7.4,7.4,0,0,0,9.22-5l11.7-38.82a7.39,7.39,0,1,0-14.16-4.27l-11.71,38.83A7.41,7.41,0,0,0,186.73,185.91Z"/></svg>