<svg id="Laag_1" data-name="Laag 1" xmlns="http://www.w3.org/2000/svg" viewBox="0 0 406.15 86.12"><defs><style>.cls-1{fill:#fff;}</style></defs><title>logo</title><polygon class="cls-1" points="54.33 54.34 0 0 0 28.97 54.33 83.31 108.65 28.97 108.65 0 54.33 54.34"/><polygon class="cls-1" points="108.65 86.12 108.65 58.48 81.03 86.12 108.65 86.12"/><polygon class="cls-1" points="0 58.48 0 86.12 27.63 86.12 0 58.48"/><path class="cls-1" d="M202,41.76v46.7h-3.9V53L182.58,72.19,166.92,52.77V88.46H163V41.69l19.53,24.14Z" transform="translate(-20.12 -21.9)"/><path class="cls-1" d="M224,70.34l-8.21-13.06q-4.17-6.63-8.13-13.06l3.62-1.78L226,66.1q3.6-5.8,7.39-11.83t7.35-11.83l3.56,1.78L227.91,70.41c0,1.41,0,2.84,0,4.27s0,2.93,0,4.48v9.3h-3.77Z" transform="translate(-20.12 -21.9)"/><path class="cls-1" d="M308.74,82.72a29,29,0,0,1-7.52,4.55A22.66,22.66,0,0,1,283.91,87a24,24,0,0,1-7.28-5,23.08,23.08,0,0,1-4.89-7.28,23.39,23.39,0,0,1,0-17.85,23.49,23.49,0,0,1,4.89-7.32,23.08,23.08,0,0,1,7.28-4.95,22.25,22.25,0,0,1,9-1.82,21.21,21.21,0,0,1,7.39,1.37,31.09,31.09,0,0,1,7.31,4l-3.07,2.46a20,20,0,0,0-11.63-3.83,18.46,18.46,0,0,0-7.42,1.5,19.43,19.43,0,0,0-6,4.06,19,19,0,0,0-4.07,6.08,18.64,18.64,0,0,0-1.51,7.47,18,18,0,0,0,1.51,7.34,19.66,19.66,0,0,0,4.07,6,19,19,0,0,0,6,4.09,18.3,18.3,0,0,0,7.42,1.51,17.67,17.67,0,0,0,6.87-1.41,24.26,24.26,0,0,0,6.47-4Z" transform="translate(-20.12 -21.9)"/><path class="cls-1" d="M343.88,84.5v4h-29.4V43.4h3.9V84.5Z" transform="translate(-20.12 -21.9)"/><path class="cls-1" d="M368.43,88.94a18.07,18.07,0,0,1-7.08-1.4,19.44,19.44,0,0,1-5.81-3.76,17.42,17.42,0,0,1-3.93-5.54,16.16,16.16,0,0,1-1.44-6.74V43.4h3.9V71.5a12.54,12.54,0,0,0,1.13,5.27A13.49,13.49,0,0,0,358.25,81a14.35,14.35,0,0,0,4.52,2.87A14.72,14.72,0,0,0,368.39,85,14.56,14.56,0,0,0,374,83.91,14.35,14.35,0,0,0,378.47,81a13.1,13.1,0,0,0,3-4.27,12.82,12.82,0,0,0,1.09-5.27V43.4h3.9V71.5A16.16,16.16,0,0,1,385,78.24a17.62,17.62,0,0,1-3.89,5.54,19.15,19.15,0,0,1-5.75,3.76A17.6,17.6,0,0,1,368.43,88.94Z" transform="translate(-20.12 -21.9)"/><path class="cls-1" d="M413.28,43.4a10.83,10.83,0,0,1,4.65,1,12.27,12.27,0,0,1,3.7,2.63,12.43,12.43,0,0,1,2.46,3.8,11.54,11.54,0,0,1,.89,4.41,11.89,11.89,0,0,1-1.3,5.47,11.6,11.6,0,0,1-3.56,4.17,13.12,13.12,0,0,1,4.45,4.69,12.33,12.33,0,0,1,1.71,6.25,12.48,12.48,0,0,1-1,4.93,13,13,0,0,1-2.66,4,12.36,12.36,0,0,1-4,2.7,12,12,0,0,1-4.82,1H396.05V43.4Zm7.8,11.76a7.48,7.48,0,0,0-.62-3A8,8,0,0,0,416.31,48a7.52,7.52,0,0,0-3.05-.61H400V63.09h13.31a7.52,7.52,0,0,0,3.05-.61,8,8,0,0,0,2.47-1.68,7.67,7.67,0,0,0,1.68-2.53A8,8,0,0,0,421.08,55.16ZM413.81,84.5a8.86,8.86,0,0,0,3.36-.65A8.19,8.19,0,0,0,419.91,82a8.77,8.77,0,0,0,1.82-2.77,8.94,8.94,0,0,0,.65-3.42,8.69,8.69,0,0,0-2.47-6.12,9,9,0,0,0-2.74-1.91,8.05,8.05,0,0,0-3.36-.72H400V84.5Z" transform="translate(-20.12 -21.9)"/></svg>