<svg id="Laag_1" data-name="Laag 1" xmlns="http://www.w3.org/2000/svg" viewBox="0 0 467.64 467.64"><defs><style>.cls-1{fill:#303338;}.cls-2{fill:#3e4147;}.cls-3{fill:#d53a12;}.cls-4{fill:#f98802;}.cls-5{fill:#fdde16;}.cls-6{fill:#9b9b9b;}.cls-7{fill:#fefefe;}.cls-8{fill:#fdfdfd;}.cls-9{fill:#fcfcfc;}</style></defs><title>goal</title><rect class="cls-1" width="467.64" height="467.64"/><rect class="cls-2" x="23" y="22.33" width="421" height="413.9"/><path class="cls-3" d="M145.27,179.44c10.78-20.85,28-29.87,51.36-30.15,46.76-.57,88.48,16.36,131.54,34.68C316.85,191,304.1,189,293.71,198c34.81,20.12,71.43,24.25,110.08,20.35-35.18,22.52-73,38.6-114.21,51.09,11,7.21,23.15,7.41,36.15,13.36-34,15.61-66.94,28-102.25,33.23A171.79,171.79,0,0,1,189.53,318c-21.53-1.12-38.38-10.44-47.1-31.37a5.21,5.21,0,0,1-.76-6.6,5.74,5.74,0,0,1,7.29,1.71c14.46,18.8,34.8,17.61,54.91,15.79,17.75-1.6,35-6.22,54.16-12.15-8.18-4.75-15.76-5.81-22-9.55-7.87-4.7-8-9.58,0-14.29,4.73-2.77,10-4,15.31-5.21C274.59,251,297.41,244.31,321,234c-22.23-6.58-41.79-16.09-60.85-26.59-17.51-9.64-17.74-13.21-2.22-25.43-19.8-6.53-39.52-12.26-60.13-13.9-14.89-1.18-29.31-.13-41,11.15-2.72,2.62-6.09,4.57-10.24,4.16A3,3,0,0,1,145.27,179.44Z"/><path class="cls-4" d="M141.86,280c-6.57-10.71-10.17-22.23-9.48-34.91,2-6.65-1.81-14.31,3.58-20.37,6,5.36,4.35,13,5.81,19.69,4.77,21.86,14.23,29.08,36.64,27.27,7.56-.61,15-2.32,22.31-4.08,4.66-1.11,10.7-.54,6.8-9.44-2-4.47,4.53-7.94,8.76-10.28a265.31,265.31,0,0,1,30.83-14.59c-13-6.76-26.13-8.73-38.71-12.43-4.61-1.35-10.29-2.18-11.67-7.56-1.89-7.34,6.33-7.38,9.83-11.47-23.19-8.54-45.61-10.3-67.15,4-1.9-9,5.41-15.45,6.51-23.62,21.89-25.64,49.93-20.9,77.69-15,16,3.39,31.64,8.74,48.77,13.59-7,8.57-16.7,6.6-24.32,13.57,26.28,17.09,53.64,30.07,86.36,37.87-33.7,18.61-68.45,24.47-104,34.92,12.07,9.68,26.45,8.62,37.6,18.62-33.15,13.73-66.16,20.8-100.93,15.82C155,299.86,149.8,287.82,141.86,280Z"/><path class="cls-5" d="M139.41,205.84c10.94-14.51,24.5-19.13,42.69-14.58,12.28,3.07,24.87,4.56,37.67,9.53-5.94,7.7-14.71,6.14-22.45,11.35,21,8.11,42.39,9.33,62,22.27-19.17,5.55-34.54,13.8-49.8,22.17,2.53,6.43,9.38,2,11,8.08,0-.16.08,1.3-.45,1.56-12.33,5.94-25.71,8.42-39,10.18-28.54,3.79-42.56-8.16-44.77-37-.37-4.85-.23-9.74-.32-14.62Z"/><path d="M83.82,237.63V227.1c.29-2.45.23-4.93.63-7.38A91.1,91.1,0,0,1,91,197.66c1.47-3.33,2.58-6.82,4.39-10A47.09,47.09,0,0,1,106,174.93c5.15-4.38,10.13-9,15.87-12.63a83.28,83.28,0,0,1,27.52-11.38,66.49,66.49,0,0,1,15.66-1.49H169a109.42,109.42,0,0,1,14.71.76,58,58,0,0,1,16.47,4.93c2.35,1.06,4.74,2,7,3.26a36.15,36.15,0,0,1,6.47,4.73c2,1.76,4.32,3.17,6.38,4.89a84,84,0,0,1,23.49,30.9,76.24,76.24,0,0,1,5.7,18.38c.56,3.41,1.55,6.75,1.8,10.21.67,9.16.19,18.16-3.07,26.91-1.53,4.1-2.79,8.31-4.56,12.33a83,83,0,0,1-13,20.41,93.73,93.73,0,0,1-20.54,17.43,78.45,78.45,0,0,1-11.66,6.6,55.33,55.33,0,0,1-16.53,4.11,119.21,119.21,0,0,1-12.68.61h-3.91c-17.35.18-32.79-5.44-46.83-15.35a75.81,75.81,0,0,0-6.64-4.5c-3-1.69-5.23-4.34-7.56-6.84-6-6.42-9.45-14.36-13.21-22.11A77.16,77.16,0,0,1,84.23,244C83.92,241.88,84.13,239.74,83.82,237.63Z"/><path class="cls-6" d="M164.83,149.52l0-.13.05-.11h4.39a.26.26,0,0,1,0,.24Z"/><path class="cls-6" d="M164.86,316l-.05-.12,0-.13h4.45a.16.16,0,0,1,0,.24Z"/><path class="cls-7" d="M96.4,234.44a136,136,0,0,1,2.22-22.6,2.14,2.14,0,0,1,.49-1.18c5.08-5.25,10.7-9.75,17.46-12.67l.14-.07c2.13-.93,3.75-.89,5.68,1.06,4.86,4.92,10.52,8.94,16,13.22a28.89,28.89,0,0,0,3.48,2.63c1.47.81,1.58,1.91,1.45,3.37a203.18,203.18,0,0,0-.53,29.91,2.6,2.6,0,0,1-1.25,2.64c-7.19,4.89-14.28,9.93-21.61,14.61a3.42,3.42,0,0,1-4.11.07c-6.31-3.83-12.24-8.06-16.73-14.08-1.53-2.06-1.68-4.42-2-6.73A59.63,59.63,0,0,1,96.4,234.44Z"/><path class="cls-7" d="M164.24,160.66c2.22-.34,3.94.93,5.71,1.88a51.27,51.27,0,0,1,14.5,10.91l.49.54a4.44,4.44,0,0,1,.92,5.25c-3.13,8-6,16.14-9,24.24a1.61,1.61,0,0,1-1.36,1.19,217.05,217.05,0,0,0-28.78,8.66,1.61,1.61,0,0,1-1.82-.26c-7.09-5.46-14.21-10.88-20.89-16.86a4.88,4.88,0,0,1-1.64-5.38c1.55-6.19,3.4-12.21,7-17.59,1.45-2.15,3.49-3.29,5.63-4.43A73.1,73.1,0,0,1,159.59,161C161.13,160.83,162.69,160.78,164.24,160.66Z"/><path class="cls-7" d="M160.27,305.52c-9-.57-17.76-2.41-25.84-6.7a38.09,38.09,0,0,1-6.12-4.19,5.41,5.41,0,0,1-1.26-1.77,56.8,56.8,0,0,1-7.11-20c-.06-.48-.06-1-.1-1.46a3.05,3.05,0,0,1,1.7-3.29c7.42-4.55,14.53-9.56,21.62-14.6a2.18,2.18,0,0,1,2.6-.21,142.6,142.6,0,0,0,28.6,10.45,1.32,1.32,0,0,1,1.14,1.06c2.57,8.67,5.31,17.29,8.34,25.82a1.67,1.67,0,0,1-.46,2,54.52,54.52,0,0,1-18.8,12.43A8.26,8.26,0,0,1,160.27,305.52Z"/><path class="cls-7" d="M213.88,233.61c-4.58,0-9.16,0-13.74,0a1.91,1.91,0,0,1-2-1.25,121.43,121.43,0,0,0-13.41-21.29c-1.39-1.75-2.89-3.42-4.4-5.07a1.37,1.37,0,0,1-.4-1.63q4.78-12.87,9.5-25.78a1.67,1.67,0,0,1,1.47-1.16,56.94,56.94,0,0,1,13.11-.34,44.22,44.22,0,0,1,5.47.79,15.7,15.7,0,0,1,8.53,4.62,84,84,0,0,1,17.65,25.84,6.89,6.89,0,0,1,.41,3.82,59,59,0,0,1-4.76,17.9c-1.18,2.56-2.68,3.87-5.76,3.61C221.7,233.35,217.78,233.61,213.88,233.61Z"/><path class="cls-7" d="M235.1,259.39a5.67,5.67,0,0,1-1,4.07,137.22,137.22,0,0,1-16.31,21.24,50.31,50.31,0,0,1-5.45,4.86c-1.87,1.45-4.16,1.51-6.31,1.85a48.05,48.05,0,0,1-13.06.63c-1-.11-1.93-.23-2.89-.36-1.95-.25-3-1.23-3.6-3.25-2.43-7.88-5.22-15.64-7.54-23.55a2.67,2.67,0,0,1,.71-2.93,183.48,183.48,0,0,0,16.68-22.09c1.45-2.2,2.81-3.11,5.64-3,7.93.33,15.88.14,23.82.1,3.51,0,3.59-.1,4.84,3.23C232.86,246.29,234.81,252.47,235.1,259.39Z"/><path class="cls-7" d="M91.9,205.19a20.84,20.84,0,0,0,3,6.43,1.23,1.23,0,0,1,.15,1.07,127.34,127.34,0,0,0-1.77,27.44,56.42,56.42,0,0,0,1,8.38c.13.6.46,1.23,0,1.94a17.53,17.53,0,0,0-2.82,8C85.47,240.82,85.62,223.21,91.9,205.19Z"/><path class="cls-8" d="M120.92,167.33a80.84,80.84,0,0,1,49-14.65,14.85,14.85,0,0,0-4.28,4.36c-.25.41-.63.38-1,.39a72.6,72.6,0,0,0-33.71,9.93,2.42,2.42,0,0,1-2.06.23A18.57,18.57,0,0,0,120.92,167.33Z"/><path class="cls-8" d="M243.82,210.74a23.44,23.44,0,0,0-4.62-3.09c-.58-.27-.67-.82-.88-1.29a80.62,80.62,0,0,0-20.16-28.1,1.29,1.29,0,0,1-.52-1.25,21.7,21.7,0,0,0-.24-6.12C225.55,174.22,242.39,199.61,243.82,210.74Z"/><path class="cls-9" d="M241.19,262.75a81,81,0,0,1-27.3,34.7,20.74,20.74,0,0,0,.81-5.21c0-.42.27-.59.53-.81,8.24-6.95,14.66-15.43,20.36-24.47A9.75,9.75,0,0,1,241.19,262.75Z"/><path class="cls-9" d="M121.72,298.53a5.86,5.86,0,0,0,1.65-.12c2.53-1.15,4.38-.06,6.48,1.39,6.59,4.53,14.08,6.83,21.91,8.08a57.37,57.37,0,0,0,9.7.89,1.35,1.35,0,0,1,1.16.45,20.44,20.44,0,0,0,3.63,3.31A79.31,79.31,0,0,1,121.72,298.53Z"/></svg>